<mxfile host="Electron" modified="2023-11-21T08:18:11.718Z" agent="Mozilla/5.0 (Windows NT 10.0; Win64; x64) AppleWebKit/537.36 (KHTML, like Gecko) draw.io/22.1.2 Chrome/114.0.5735.289 Electron/25.9.4 Safari/537.36" etag="3TzgQGXmQpnubC5GPMLG" version="22.1.2" type="device">
  <diagram name="Page-1" id="ib84BT0YMZLmXDvviUqj">
    <mxGraphModel dx="3008" dy="899" grid="1" gridSize="10" guides="1" tooltips="1" connect="1" arrows="1" fold="1" page="1" pageScale="1" pageWidth="827" pageHeight="1169" math="0" shadow="0">
      <root>
        <mxCell id="0" />
        <mxCell id="1" parent="0" />
        <mxCell id="8z1fkxkdhjhxzu_1mDYb-1" value="Welkom-vraag" style="rounded=0;whiteSpace=wrap;html=1;" parent="1" vertex="1">
          <mxGeometry x="140" y="20" width="120" height="60" as="geometry" />
        </mxCell>
        <mxCell id="8z1fkxkdhjhxzu_1mDYb-2" value="opendag" style="rounded=0;whiteSpace=wrap;html=1;" parent="1" vertex="1">
          <mxGeometry x="-630" y="200" width="120" height="60" as="geometry" />
        </mxCell>
        <mxCell id="8z1fkxkdhjhxzu_1mDYb-3" value="opleiding" style="rounded=0;whiteSpace=wrap;html=1;" parent="1" vertex="1">
          <mxGeometry x="140" y="200" width="120" height="60" as="geometry" />
        </mxCell>
        <mxCell id="8z1fkxkdhjhxzu_1mDYb-4" value="?" style="rounded=0;whiteSpace=wrap;html=1;" parent="1" vertex="1">
          <mxGeometry x="560" y="200" width="120" height="60" as="geometry" />
        </mxCell>
        <mxCell id="8z1fkxkdhjhxzu_1mDYb-5" value="datum" style="rounded=0;whiteSpace=wrap;html=1;" parent="1" vertex="1">
          <mxGeometry x="-750" y="360" width="120" height="60" as="geometry" />
        </mxCell>
        <mxCell id="8z1fkxkdhjhxzu_1mDYb-7" value="informatie" style="rounded=0;whiteSpace=wrap;html=1;" parent="1" vertex="1">
          <mxGeometry x="-510" y="360" width="120" height="60" as="geometry" />
        </mxCell>
        <mxCell id="8z1fkxkdhjhxzu_1mDYb-12" value="Wanneer?" style="rounded=0;whiteSpace=wrap;html=1;" parent="1" vertex="1">
          <mxGeometry x="-860" y="520" width="120" height="60" as="geometry" />
        </mxCell>
        <mxCell id="8z1fkxkdhjhxzu_1mDYb-14" value="Hoe laat?" style="rounded=0;whiteSpace=wrap;html=1;" parent="1" vertex="1">
          <mxGeometry x="-620" y="520" width="120" height="60" as="geometry" />
        </mxCell>
        <mxCell id="8z1fkxkdhjhxzu_1mDYb-22" value="Welke?" style="rounded=0;whiteSpace=wrap;html=1;" parent="1" vertex="1">
          <mxGeometry x="-20" y="360" width="120" height="60" as="geometry" />
        </mxCell>
        <mxCell id="8z1fkxkdhjhxzu_1mDYb-23" value="Hoe lang?" style="rounded=0;whiteSpace=wrap;html=1;" parent="1" vertex="1">
          <mxGeometry x="140" y="360" width="120" height="60" as="geometry" />
        </mxCell>
        <mxCell id="8z1fkxkdhjhxzu_1mDYb-24" value="?" style="rounded=0;whiteSpace=wrap;html=1;" parent="1" vertex="1">
          <mxGeometry x="300" y="360" width="120" height="60" as="geometry" />
        </mxCell>
        <mxCell id="8z1fkxkdhjhxzu_1mDYb-25" value="" style="endArrow=none;html=1;rounded=0;entryX=0.5;entryY=1;entryDx=0;entryDy=0;exitX=0.5;exitY=0;exitDx=0;exitDy=0;" parent="1" source="8z1fkxkdhjhxzu_1mDYb-22" target="8z1fkxkdhjhxzu_1mDYb-3" edge="1">
          <mxGeometry width="50" height="50" relative="1" as="geometry">
            <mxPoint x="200" y="520" as="sourcePoint" />
            <mxPoint x="250" y="470" as="targetPoint" />
            <Array as="points">
              <mxPoint x="40" y="320" />
              <mxPoint x="200" y="320" />
            </Array>
          </mxGeometry>
        </mxCell>
        <mxCell id="8z1fkxkdhjhxzu_1mDYb-26" value="" style="endArrow=none;html=1;rounded=0;entryX=0.5;entryY=1;entryDx=0;entryDy=0;exitX=0.5;exitY=0;exitDx=0;exitDy=0;" parent="1" source="8z1fkxkdhjhxzu_1mDYb-23" target="8z1fkxkdhjhxzu_1mDYb-3" edge="1">
          <mxGeometry width="50" height="50" relative="1" as="geometry">
            <mxPoint x="260" y="330" as="sourcePoint" />
            <mxPoint x="250" y="470" as="targetPoint" />
          </mxGeometry>
        </mxCell>
        <mxCell id="8z1fkxkdhjhxzu_1mDYb-27" value="" style="endArrow=none;html=1;rounded=0;entryX=0.5;entryY=1;entryDx=0;entryDy=0;exitX=0.5;exitY=0;exitDx=0;exitDy=0;" parent="1" source="8z1fkxkdhjhxzu_1mDYb-24" target="8z1fkxkdhjhxzu_1mDYb-3" edge="1">
          <mxGeometry width="50" height="50" relative="1" as="geometry">
            <mxPoint x="200" y="520" as="sourcePoint" />
            <mxPoint x="250" y="470" as="targetPoint" />
            <Array as="points">
              <mxPoint x="360" y="320" />
              <mxPoint x="200" y="320" />
            </Array>
          </mxGeometry>
        </mxCell>
        <mxCell id="cjTrmgC5eupXBIBTEx_7-1" value="" style="endArrow=classic;html=1;rounded=0;exitX=0.5;exitY=1;exitDx=0;exitDy=0;entryX=0.5;entryY=0;entryDx=0;entryDy=0;" edge="1" parent="1" source="8z1fkxkdhjhxzu_1mDYb-1" target="8z1fkxkdhjhxzu_1mDYb-2">
          <mxGeometry width="50" height="50" relative="1" as="geometry">
            <mxPoint x="-240" y="230" as="sourcePoint" />
            <mxPoint x="-40" y="260" as="targetPoint" />
            <Array as="points">
              <mxPoint x="200" y="160" />
              <mxPoint x="-570" y="160" />
            </Array>
          </mxGeometry>
        </mxCell>
        <mxCell id="cjTrmgC5eupXBIBTEx_7-2" value="" style="endArrow=classic;html=1;rounded=0;exitX=0.5;exitY=1;exitDx=0;exitDy=0;entryX=0.5;entryY=0;entryDx=0;entryDy=0;" edge="1" parent="1" source="8z1fkxkdhjhxzu_1mDYb-2" target="8z1fkxkdhjhxzu_1mDYb-5">
          <mxGeometry width="50" height="50" relative="1" as="geometry">
            <mxPoint x="-400" y="350" as="sourcePoint" />
            <mxPoint x="-350" y="300" as="targetPoint" />
            <Array as="points">
              <mxPoint x="-570" y="320" />
              <mxPoint x="-690" y="320" />
            </Array>
          </mxGeometry>
        </mxCell>
        <mxCell id="cjTrmgC5eupXBIBTEx_7-3" value="" style="endArrow=classic;html=1;rounded=0;entryX=0.5;entryY=0;entryDx=0;entryDy=0;exitX=0.5;exitY=1;exitDx=0;exitDy=0;" edge="1" parent="1" source="8z1fkxkdhjhxzu_1mDYb-2" target="8z1fkxkdhjhxzu_1mDYb-7">
          <mxGeometry width="50" height="50" relative="1" as="geometry">
            <mxPoint x="-340" y="260" as="sourcePoint" />
            <mxPoint x="-310" y="340" as="targetPoint" />
            <Array as="points">
              <mxPoint x="-570" y="320" />
              <mxPoint x="-450" y="320" />
            </Array>
          </mxGeometry>
        </mxCell>
        <mxCell id="cjTrmgC5eupXBIBTEx_7-5" value="" style="endArrow=classic;html=1;rounded=0;exitX=0.5;exitY=1;exitDx=0;exitDy=0;entryX=0.5;entryY=0;entryDx=0;entryDy=0;" edge="1" parent="1" source="8z1fkxkdhjhxzu_1mDYb-1" target="8z1fkxkdhjhxzu_1mDYb-3">
          <mxGeometry width="50" height="50" relative="1" as="geometry">
            <mxPoint x="380" y="370" as="sourcePoint" />
            <mxPoint x="430" y="320" as="targetPoint" />
          </mxGeometry>
        </mxCell>
        <mxCell id="cjTrmgC5eupXBIBTEx_7-7" value="" style="endArrow=classic;html=1;rounded=0;exitX=0.5;exitY=1;exitDx=0;exitDy=0;entryX=0.5;entryY=0;entryDx=0;entryDy=0;" edge="1" parent="1" source="8z1fkxkdhjhxzu_1mDYb-5" target="8z1fkxkdhjhxzu_1mDYb-12">
          <mxGeometry width="50" height="50" relative="1" as="geometry">
            <mxPoint x="-500" y="480" as="sourcePoint" />
            <mxPoint x="-450" y="430" as="targetPoint" />
            <Array as="points">
              <mxPoint x="-690" y="480" />
              <mxPoint x="-800" y="480" />
            </Array>
          </mxGeometry>
        </mxCell>
        <mxCell id="cjTrmgC5eupXBIBTEx_7-8" value="" style="endArrow=classic;html=1;rounded=0;exitX=0.5;exitY=1;exitDx=0;exitDy=0;entryX=0.5;entryY=0;entryDx=0;entryDy=0;" edge="1" parent="1" source="8z1fkxkdhjhxzu_1mDYb-5" target="8z1fkxkdhjhxzu_1mDYb-14">
          <mxGeometry width="50" height="50" relative="1" as="geometry">
            <mxPoint x="-480" y="480" as="sourcePoint" />
            <mxPoint x="-430" y="430" as="targetPoint" />
            <Array as="points">
              <mxPoint x="-690" y="480" />
              <mxPoint x="-560" y="480" />
            </Array>
          </mxGeometry>
        </mxCell>
      </root>
    </mxGraphModel>
  </diagram>
</mxfile>
